<svg xmlns="http://www.w3.org/2000/svg" viewBox="-165.00 -157.66 330.00 315.32">
  <polygon points="52.74,7.95 41.80,0.00 52.74,-7.95 43.77,0.00" fill="#3498db"/>
  <polygon points="72.42,20.81 55.32,0.00 72.42,-20.81 57.29,0.00" fill="#e74c3c"/>
  <polygon points="50.53,4.91 43.77,0.00 50.53,-4.91 52.13,0.00" fill="#e74c3c"/>
  <polygon points="39.59,12.86 13.53,0.00 39.59,-12.86 5.17,0.00" fill="#e74c3c"/>
  <polygon points="77.58,46.54 17.71,12.86 68.24,59.40 0.00,0.00" fill="#e74c3c"/>
  <polygon points="111.02,78.34 121.35,88.17 108.81,81.38 46.35,33.68" fill="#e74c3c"/>
  <polygon points="140.65,12.86 136.47,0.00 140.65,-12.86 150.00,0.00" fill="#3498db"/>
  <polygon points="83.36,3.04 57.29,0.00 83.36,-3.04 114.59,0.00" fill="#3498db"/>
  <polygon points="23.86,47.70 12.92,39.75 8.74,52.61 13.53,41.63" fill="#3498db"/>
  <polygon points="42.17,62.44 17.10,52.61 2.58,75.30 17.71,54.49" fill="#e74c3c"/>
  <polygon points="20.29,46.54 13.53,41.63 10.94,49.58 16.11,49.58" fill="#e74c3c"/>
  <polygon points="24.47,33.68 4.18,12.86 0.00,41.63 1.60,4.91" fill="#e74c3c"/>
  <polygon points="55.70,129.79 42.17,129.79 31.23,137.75 46.35,142.66" fill="#3498db"/>
  <polygon points="28.65,78.34 17.71,54.49 22.87,80.22 35.41,108.98" fill="#3498db"/>
  <polygon points="-20.29,88.17 -6.76,20.81 -35.41,83.25 0.00,0.00" fill="#e74c3c"/>
  <polygon points="-40.20,129.79 -46.35,142.66 -43.77,128.64 -17.71,54.49" fill="#e74c3c"/>
  <polygon points="-37.99,37.43 -33.81,24.57 -47.34,24.57 -35.41,25.73" fill="#3498db"/>
  <polygon points="-46.35,59.40 -44.76,32.52 -70.82,25.73 -46.35,33.68" fill="#e74c3c"/>
  <polygon points="-37.99,33.68 -35.41,25.73 -43.77,25.73 -42.17,30.64" fill="#e74c3c"/>
  <polygon points="-24.47,33.68 -10.94,7.95 -39.59,12.86 -4.18,3.04" fill="#e74c3c"/>
  <polygon points="-106.23,93.08 -110.41,80.22 -121.35,72.27 -121.35,88.17" fill="#3498db"/>
  <polygon points="-65.65,51.45 -46.35,33.68 -69.22,46.54 -92.71,67.35" fill="#3498db"/>
  <polygon points="-90.12,7.95 -21.88,0.00 -90.12,-7.95 0.00,0.00" fill="#e74c3c"/>
  <polygon points="-135.86,1.88 -150.00,0.00 -135.86,-1.88 -57.29,0.00" fill="#e74c3c"/>
  <polygon points="-47.34,-24.57 -33.81,-24.57 -37.99,-37.43 -35.41,-25.73" fill="#3498db"/>
  <polygon points="-70.82,-25.73 -44.76,-32.52 -46.35,-59.40 -46.35,-33.68" fill="#e74c3c"/>
  <polygon points="-43.77,-25.73 -35.41,-25.73 -37.99,-33.68 -42.17,-30.64" fill="#e74c3c"/>
  <polygon points="-39.59,-12.86 -10.94,-7.95 -24.47,-33.68 -4.18,-3.04" fill="#e74c3c"/>
  <polygon points="-121.35,-72.27 -110.41,-80.22 -106.23,-93.08 -121.35,-88.17" fill="#3498db"/>
  <polygon points="-69.22,-46.54 -46.35,-33.68 -65.65,-51.45 -92.71,-67.35" fill="#3498db"/>
  <polygon points="-35.41,-83.25 -6.76,-20.81 -20.29,-88.17 0.00,0.00" fill="#e74c3c"/>
  <polygon points="-43.77,-128.64 -46.35,-142.66 -40.20,-129.79 -17.71,-54.49" fill="#e74c3c"/>
  <polygon points="8.74,-52.61 12.92,-39.75 23.86,-47.70 13.53,-41.63" fill="#3498db"/>
  <polygon points="2.58,-75.30 17.10,-52.61 42.17,-62.44 17.71,-54.49" fill="#e74c3c"/>
  <polygon points="10.94,-49.58 13.53,-41.63 20.29,-46.54 16.11,-49.58" fill="#e74c3c"/>
  <polygon points="-0.00,-41.63 4.18,-12.86 24.47,-33.68 1.60,-4.91" fill="#e74c3c"/>
  <polygon points="31.23,-137.75 42.17,-129.79 55.70,-129.79 46.35,-142.66" fill="#3498db"/>
  <polygon points="22.87,-80.22 17.71,-54.49 28.65,-78.34 35.41,-108.98" fill="#3498db"/>
  <polygon points="68.24,-59.40 17.71,-12.86 77.58,-46.54 0.00,0.00" fill="#e74c3c"/>
  <polygon points="108.81,-81.38 121.35,-88.17 111.02,-78.34 46.35,-33.68" fill="#e74c3c"/>
</svg>